<svg xmlns="http://www.w3.org/2000/svg" viewBox="0 0 512 512" role="img" aria-label="Mutqin favicon">
  <defs>
    <linearGradient id="bg" x1="96" y1="64" x2="416" y2="448" gradientUnits="userSpaceOnUse">
      <stop offset="0" stop-color="#9b6a44"/>
      <stop offset="1" stop-color="#6f4528"/>
    </linearGradient>
    <linearGradient id="mark" x1="160" y1="152" x2="352" y2="368" gradientUnits="userSpaceOnUse">
      <stop offset="0" stop-color="#fffdf8"/>
      <stop offset="1" stop-color="#f0e4d6"/>
    </linearGradient>
  </defs>
  <style>
    .dark-bg { fill: #111317; }
    .dark-outline { stroke: #e4b98c; }
    .dark-mark { fill: #f6e7d7; }
    @media (prefers-color-scheme: light) {
      .dark-bg { fill: url(#bg); }
      .dark-outline { stroke: rgba(255,255,255,.18); }
      .dark-mark { fill: url(#mark); }
    }
  </style>
  <rect x="40" y="40" width="432" height="432" rx="124" class="dark-bg"/>
  <rect x="68" y="68" width="376" height="376" rx="104" fill="none" class="dark-outline" stroke-width="14"/>
  <path class="dark-mark" d="M182 334V190c0-13 11-24 24-24h18c8 0 15 4 20 11l24 35 24-35c5-7 12-11 20-11h18c13 0 24 11 24 24v144h-28V205l-29 42c-4 6-10 9-17 9s-13-3-17-9l-29-42v129z"/>
  <circle cx="256" cy="372" r="18" fill="#d7a87c"/>
</svg>
